PathFileType	4	(X/Y/Z)	OpenSim_Sub01_CSBaseline_Magnet.trc
DataRate	CameraRate	NumFrames	NumMarkers	Units	OrigDataRate	OrigDataStartFrame	OrigNumFrames
100	100	27	8	m	100	1	5950
Frame#	Time	torso_imu_offset_imu	pelvis_imu_offset_imu	tibia_r_imu_offset_imu	femur_r_imu_offset_imu	tibia_l_imu_offset_imu	femur_l_imu_offset_imu	toes_r_imu_offset_imu	toes_l_imu_offset_imu
				X1	Y1	Z1	X2	Y2	Z2	X3	Y3	Z3	X4	Y4	Z4	X5	Y5	Z5	X6	Y6	Z6	X7	Y7	Z7	X8		Y8	Z8	

1	0	-0.94151811	-0.13554898	0.03896139	-0.70612767	0.17647070	-0.61584798	-0.57893658	-0.56728244	-0.18110327	-0.66682693	-0.49725309	-0.07735776	-0.59163938	0.55966111	0.15759735	-0.43433676	0.00518141	0.28375281	-0.70632845	-0.16238924	-0.39099135	-0.70459264	-0.21099117	-0.36319697
2	0.01000000	-0.94129626	-0.13830110	0.03577268	-0.70312874	0.17688069	-0.61378700	-0.57900714	-0.56430014	-0.17877353	-0.66327590	-0.49885480	-0.07813441	-0.59156210	0.56045571	0.15934039	-0.43549930	0.00302338	0.28463996	-0.70691858	-0.15956986	-0.39138072	-0.70424434	-0.20673375	-0.36173832
3	0.02000000	-0.94100866	-0.14114569	0.03139384	-0.69998205	0.17649877	-0.61338756	-0.57901407	-0.56310753	-0.17739918	-0.66112367	-0.49961132	-0.07936412	-0.59182439	0.56148252	0.16145794	-0.43813437	0.00107014	0.28584271	-0.70653700	-0.15674227	-0.39280787	-0.70496860	-0.20161225	-0.35950978
4	0.03000000	-0.94210532	-0.14160645	0.02990559	-0.70087503	0.17561179	-0.61704258	-0.57953825	-0.56582199	-0.17739406	-0.66260597	-0.49717973	-0.07967559	-0.59138452	0.56228854	0.16209835	-0.43920724	0.00197025	0.28653292	-0.70562592	-0.15748199	-0.39442493	-0.70625443	-0.19890856	-0.35779014
5	0.04000000	-0.94357335	-0.14030727	0.03125783	-0.70504074	0.17468996	-0.62268882	-0.58037227	-0.57029915	-0.17841580	-0.66664435	-0.49302883	-0.07951825	-0.59034397	0.56242941	0.16109603	-0.43826205	0.00444033	0.28645342	-0.70463837	-0.16073304	-0.39542756	-0.70735867	-0.19906974	-0.35753152
6	0.05000000	-0.94295432	-0.13969564	0.03296897	-0.70879597	0.17431043	-0.62564550	-0.58084586	-0.57189293	-0.17967626	-0.67021010	-0.49086755	-0.08041035	-0.58947716	0.56146826	0.15927948	-0.43636425	0.00488669	0.28568493	-0.70403250	-0.16271575	-0.39504043	-0.70740453	-0.20087065	-0.35948766
7	0.06000000	-0.93934795	-0.14109113	0.03367947	-0.70979807	0.17479255	-0.62360771	-0.58073789	-0.56858050	-0.18043890	-0.67130592	-0.49260839	-0.08275815	-0.58926106	0.55947888	0.15734637	-0.43457660	0.00165858	0.28452286	-0.70399583	-0.16144345	-0.39319347	-0.70620863	-0.20310605	-0.36320821
8	0.07000000	-0.93537220	-0.14324416	0.03460354	-0.70877974	0.17587741	-0.61964714	-0.58084274	-0.56426431	-0.18009522	-0.67029202	-0.49609096	-0.08445600	-0.58948945	0.55767408	0.15567397	-0.43391198	-0.00249286	0.28373203	-0.70411188	-0.15900873	-0.39138939	-0.70513861	-0.20466344	-0.36556183
9	0.08000000	-0.93386111	-0.14469555	0.03708679	-0.70687097	0.17721063	-0.61725098	-0.58193434	-0.56323125	-0.17820406	-0.66791944	-0.49876270	-0.08338538	-0.58985598	0.55729641	0.15459731	-0.43519843	-0.00450355	0.28404392	-0.70395037	-0.15783505	-0.39117121	-0.70557522	-0.20463558	-0.36352217
10	0.09000000	-0.93496475	-0.14541134	0.04023603	-0.70500772	0.17825999	-0.61668567	-0.58315672	-0.56546006	-0.17587297	-0.66568077	-0.49971182	-0.08080412	-0.58997459	0.55830383	0.15446341	-0.43742545	-0.00422753	0.28519058	-0.70378202	-0.15806361	-0.39230125	-0.70686742	-0.20410495	-0.35889149
11	0.10000000	-0.93725066	-0.14619590	0.04184363	-0.70400872	0.17839068	-0.61632105	-0.58269818	-0.56839106	-0.17511747	-0.66550004	-0.49899643	-0.07995270	-0.58941440	0.55989781	0.15562340	-0.43850260	-0.00323743	0.28631545	-0.70428831	-0.15849169	-0.39349335	-0.70717116	-0.20531986	-0.35631015
12	0.11000000	-0.93946544	-0.14734591	0.04101829	-0.70410847	0.17746092	-0.61524208	-0.57997102	-0.57010127	-0.17676935	-0.66802224	-0.49709120	-0.08214701	-0.58820266	0.56155101	0.15780709	-0.43732576	-0.00250492	0.28677433	-0.70556069	-0.15842906	-0.39387493	-0.70581006	-0.20883685	-0.35823650
13	0.12000000	-0.94080075	-0.14800100	0.03984375	-0.70424131	0.17643200	-0.61418403	-0.57714616	-0.57016158	-0.17899287	-0.67102603	-0.49537234	-0.08435150	-0.58739012	0.56336292	0.15935789	-0.43502275	-0.00161126	0.28641390	-0.70636217	-0.15836769	-0.39352654	-0.70474758	-0.21140417	-0.36217823
14	0.13000000	-0.94062324	-0.14730783	0.04054473	-0.70333431	0.17627817	-0.61398522	-0.57652035	-0.56847786	-0.17980830	-0.67216218	-0.49517923	-0.08338323	-0.58804924	0.56541497	0.15865974	-0.43296576	-0.00007987	0.28522151	-0.70545401	-0.15888597	-0.39267222	-0.70601026	-0.20971930	-0.36511060
15	0.14000000	-0.93948439	-0.14610124	0.04264559	-0.70205572	0.17656728	-0.61424248	-0.57783614	-0.56632781	-0.17947516	-0.67176505	-0.49621199	-0.08061572	-0.59004667	0.56672626	0.15645210	-0.43193218	0.00122026	0.28395170	-0.70343438	-0.15980260	-0.39168604	-0.70858842	-0.20527551	-0.36542765
16	0.15000000	-0.93863161	-0.14620624	0.04408198	-0.70209674	0.17604218	-0.61382408	-0.57933279	-0.56579216	-0.17957079	-0.67174713	-0.49720603	-0.08009874	-0.59253694	0.56569518	0.15485902	-0.43234605	0.00063225	0.28380735	-0.70198116	-0.16048949	-0.39102952	-0.70968827	-0.20238586	-0.36236744
17	0.16000000	-0.93868016	-0.14822883	0.04369416	-0.70426402	0.17444267	-0.61240619	-0.57999842	-0.56762515	-0.18100653	-0.67296732	-0.49739458	-0.08340436	-0.59450240	0.56198961	0.15496714	-0.43410316	-0.00227232	0.28510265	-0.70192940	-0.16060233	-0.39092778	-0.70799968	-0.20340447	-0.35666725
18	0.17000000	-0.93881470	-0.15002648	0.04238663	-0.70736102	0.17375687	-0.61148861	-0.58053535	-0.56959825	-0.18316965	-0.67388833	-0.49714948	-0.08649910	-0.59456175	0.55812784	0.15550838	-0.43593084	-0.00515802	0.28615597	-0.70220240	-0.16044280	-0.39107605	-0.70557446	-0.20623317	-0.35238521
19	0.18000000	-0.93815159	-0.14938189	0.04129573	-0.70996856	0.17597870	-0.61255029	-0.58174492	-0.56934737	-0.18524460	-0.67288238	-0.49696230	-0.08512626	-0.59156533	0.55675851	0.15505529	-0.43655272	-0.00560837	0.28529508	-0.70161022	-0.16036796	-0.39117895	-0.70472333	-0.20835646	-0.35352330
20	0.19000000	-0.93710054	-0.14714527	0.04106806	-0.71116754	0.18002165	-0.61430774	-0.58305641	-0.56727558	-0.18645065	-0.67073472	-0.49697055	-0.08055509	-0.58726295	0.55789399	0.15382431	-0.43628652	-0.00423065	0.28373288	-0.70046378	-0.16040422	-0.39177833	-0.70573397	-0.20917010	-0.35886514
21	0.20000000	-0.93683076	-0.14597042	0.04205900	-0.71033748	0.18298852	-0.61385625	-0.58309491	-0.56541464	-0.18603124	-0.66964817	-0.49710261	-0.07730577	-0.58510583	0.55999234	0.15299968	-0.43638703	-0.00341026	0.28437539	-0.69995659	-0.16038254	-0.39390435	-0.70769988	-0.20919624	-0.36412365
22	0.21000000	-0.93777104	-0.14725482	0.04412984	-0.70762337	0.18335427	-0.61006821	-0.58159351	-0.56500602	-0.18400583	-0.67057374	-0.49724027	-0.07801412	-0.58664691	0.56168731	0.15335408	-0.43741937	-0.00434039	0.28824734	-0.70067937	-0.16005133	-0.39741240	-0.70955067	-0.20873604	-0.36664451
23	0.22000000	-0.93867627	-0.14954066	0.04604783	-0.70486969	0.18270780	-0.60582792	-0.58078084	-0.56548091	-0.18212460	-0.67162832	-0.49716728	-0.08101779	-0.58915439	0.56204941	0.15471402	-0.43838273	-0.00550280	0.29212709	-0.70185251	-0.15898043	-0.39952249	-0.70988476	-0.20756507	-0.36750505
24	0.23000000	-0.93825100	-0.15113250	0.04659763	-0.70392563	0.18283966	-0.60426522	-0.58285851	-0.56604947	-0.18214287	-0.67084617	-0.49668111	-0.08416350	-0.58962468	0.56040162	0.15674739	-0.43819906	-0.00517207	0.29260502	-0.70257307	-0.15684981	-0.39749022	-0.70752889	-0.20548983	-0.36813664
25	0.24000000	-0.93701842	-0.15186967	0.04627147	-0.70431513	0.18327266	-0.60544080	-0.58626357	-0.56616886	-0.18345161	-0.66936708	-0.49585756	-0.08623428	-0.58823360	0.55806336	0.15880648	-0.43717996	-0.00327114	0.29026274	-0.70257930	-0.15472580	-0.39261980	-0.70412925	-0.20337003	-0.36841286
26	0.25000000	-0.93657023	-0.15249428	0.04656539	-0.70419553	0.18219804	-0.60760611	-0.58722234	-0.56544354	-0.18405215	-0.67015326	-0.49493634	-0.08656815	-0.58702924	0.55752411	0.16005961	-0.43645514	-0.00069543	0.28803069	-0.70198815	-0.15448691	-0.38859690	-0.70298635	-0.20268171	-0.36729208
27	0.26000000	-0.93758028	-0.15318549	0.04822131	-0.70280275	0.17912231	-0.60928101	-0.58407813	-0.56381793	-0.18303216	-0.67413451	-0.49409392	-0.08506660	-0.58735850	0.55965347	0.16014482	-0.43679493	0.00165578	0.28765814	-0.70102273	-0.15682414	-0.38765049	-0.70550833	-0.20384165	-0.36452943
